<svg data-v-fde0c5aa="" xmlns="http://www.w3.org/2000/svg" viewBox="0 0 300 300" class="icon"><!----><defs data-v-fde0c5aa=""><!----></defs><rect data-v-fde0c5aa="" fill="transparent" x="0" y="0" width="300px" height="300px" class="logo-background-square"></rect><!----><defs data-v-fde0c5aa=""><!----></defs><g data-v-fde0c5aa="" id="3d7700f7-c9b0-4140-ac3d-973f4e75b93f" fill="#000000" stroke="none" transform="matrix(2.2000001678466923,0,0,2.2000001678466923,40.00220000027235,39.997790717910064)"><path d="M96.033 24.973V11.588H88.04l-5.45 1.816-5.451-1.816H74.67l-7.446 1.861-7.446-1.861h-2.47l-5.45 1.816-5.451-1.816h-4.153v13.354l-.549 5.852H32.65V18.309a6.729 6.729 0 0 0-6.722-6.721H-.001v11.524h21.127v7.682H9.602v11.524h3.995l3.842 46.096h82.56l-3.966-63.441zM3.841 19.27v-3.842H25.93a2.884 2.884 0 0 1 2.881 2.881v12.485h-3.842V19.27H3.841zm32.806 65.302H20.975l-3.522-42.254h22.715l-3.521 42.254zm7.529-46.096H13.444v-3.84h30.732v3.84zm42.251 17.286l-1.799 28.811H48.185l1.76-21.126 1.761-21.128h3.993V30.794H45.564l.36-3.842h42.303l-1.8 28.81zm1.925-32.65H46.097v-7.581l5.763 1.922 6.072-2.025h1.373l7.919 1.98 7.918-1.98h1.373l6.075 2.025 5.762-1.922v7.581z"></path></g><!----></svg>