<svg data-v-423bf9ae="" xmlns="http://www.w3.org/2000/svg" viewBox="0 0 615 90" class="iconLeft"><!----><!----><!----><g data-v-423bf9ae="" id="95d9889b-4141-412c-8e68-f23ceac0aed1" fill="white" transform="matrix(4.834810696030102,0,0,4.834810696030102,183.7568903121828,-20.05237754621824)"><path d="M4.58 8.88L3.08 8.75L3.08 10.18L4.20 10.18L4.20 11.14L3.08 11.14L3.08 17.18L1.68 17.18L1.68 11.14L0.70 11.14L0.70 10.18L1.68 10.18L1.68 10.18Q1.74 9.21 1.90 8.69L1.90 8.69L1.90 8.69Q2.07 8.16 2.42 7.95L2.42 7.95L2.42 7.95Q2.76 7.73 3.37 7.73L3.37 7.73L3.37 7.73Q4.05 7.73 4.66 7.87L4.66 7.87L4.58 8.88ZM5.77 17.18L5.77 17.18ZM5.92 10.28L7.32 10.07L7.32 17.18L5.92 17.18L5.92 10.28ZM6.64 8.96L6.64 8.96Q6.12 8.96 5.94 8.79L5.94 8.79L5.94 8.79Q5.77 8.61 5.77 8.12L5.77 8.12L5.77 8.12Q5.77 7.62 5.95 7.43L5.95 7.43L5.95 7.43Q6.13 7.25 6.64 7.25L6.64 7.25L6.64 7.25Q7.13 7.25 7.30 7.43L7.30 7.43L7.30 7.43Q7.48 7.62 7.48 8.12L7.48 8.12L7.48 8.12Q7.48 8.61 7.31 8.79L7.31 8.79L7.31 8.79Q7.14 8.96 6.64 8.96L6.64 8.96ZM12.91 11.14L11.66 11.14L11.66 16.14L11.66 16.14Q12.17 16.20 12.66 16.21L12.66 16.21L12.57 17.16L12.57 17.16Q11.79 17.32 11.30 17.32L11.30 17.32L11.30 17.32Q10.77 17.32 10.51 17.06L10.51 17.06L10.51 17.06Q10.26 16.80 10.26 16.27L10.26 16.27L10.26 11.14L9.28 11.14L9.28 10.18L10.26 10.18L10.26 8.68L11.66 8.33L11.66 10.18L12.91 10.18L12.91 11.14ZM14.80 17.18L14.80 10.18L15.44 10.18L15.82 10.88L15.82 10.88Q16.35 10.44 16.98 10.24L16.98 10.24L16.98 10.24Q17.61 10.04 18.42 10.04L18.42 10.04L18.42 10.04Q19.40 10.04 19.91 10.34L19.91 10.34L19.91 10.34Q20.41 10.64 20.41 11.23L20.41 11.23L20.41 17.18L19.01 17.18L19.01 11.19L17.39 11.19L17.39 11.19Q16.70 11.19 16.45 11.35L16.45 11.35L16.45 11.35Q16.20 11.52 16.20 12.00L16.20 12.00L16.20 17.18L14.80 17.18ZM25.41 16.21L25.41 16.21Q25.98 16.21 26.53 16.14L26.53 16.14L26.53 16.14Q27.08 16.06 27.83 15.88L27.83 15.88L28.01 16.90L28.01 16.90Q27.50 17.09 26.73 17.21L26.73 17.21L26.73 17.21Q25.97 17.32 25.16 17.32L25.16 17.32L25.16 17.32Q24.07 17.32 23.49 17.00L23.49 17.00L23.49 17.00Q22.92 16.69 22.68 15.92L22.68 15.92L22.68 15.92Q22.44 15.15 22.44 13.68L22.44 13.68L22.44 13.68Q22.44 12.26 22.71 11.49L22.71 11.49L22.71 11.49Q22.99 10.71 23.62 10.37L23.62 10.37L23.62 10.37Q24.25 10.04 25.40 10.04L25.40 10.04L25.40 10.04Q26.53 10.04 27.13 10.22L27.13 10.22L27.13 10.22Q27.72 10.40 27.96 10.84L27.96 10.84L27.96 10.84Q28.20 11.28 28.20 12.14L28.20 12.14L28.20 12.14Q28.20 13.16 27.90 13.61L27.90 13.61L27.90 13.61Q27.61 14.06 26.75 14.21L26.75 14.21L26.75 14.21Q25.89 14.36 23.91 14.36L23.91 14.36L23.91 16.06L23.91 16.06Q24.47 16.21 25.41 16.21L25.41 16.21ZM25.07 11.19L25.07 11.19Q24.40 11.19 24.16 11.35L24.16 11.35L24.16 11.35Q23.91 11.52 23.91 12.00L23.91 12.00L23.91 13.45L25.76 13.45L25.76 13.45Q26.45 13.45 26.69 13.29L26.69 13.29L26.69 13.29Q26.94 13.12 26.94 12.64L26.94 12.64L26.94 11.19L25.07 11.19ZM29.96 12.05L29.96 12.05Q29.96 10.98 30.60 10.47L30.60 10.47L30.60 10.47Q31.23 9.97 32.61 9.97L32.61 9.97L32.61 9.97Q33.82 9.97 34.93 10.28L34.93 10.28L34.73 11.30L34.73 11.30Q34.38 11.20 33.91 11.14L33.91 11.14L33.91 11.14Q33.43 11.07 33.03 11.07L33.03 11.07L33.03 11.07Q32.19 11.07 31.43 11.20L31.43 11.20L31.43 12.85L31.43 12.85Q33.11 13.09 33.90 13.34L33.90 13.34L33.90 13.34Q34.69 13.58 34.99 13.99L34.99 13.99L34.99 13.99Q35.28 14.41 35.28 15.20L35.28 15.20L35.28 15.20Q35.28 16.00 34.99 16.48L34.99 16.48L34.99 16.48Q34.71 16.95 34.06 17.17L34.06 17.17L34.06 17.17Q33.42 17.39 32.34 17.39L32.34 17.39L32.34 17.39Q31.14 17.39 29.81 16.98L29.81 16.98L30.03 15.86L30.03 15.86Q31.11 16.28 32.33 16.28L32.33 16.28L32.33 16.28Q32.75 16.28 33.07 16.24L33.07 16.24L33.07 16.24Q33.39 16.20 33.81 16.09L33.81 16.09L33.81 14.43L33.81 14.43Q32.00 14.18 31.23 13.94L31.23 13.94L31.23 13.94Q30.46 13.71 30.21 13.31L30.21 13.31L30.21 13.31Q29.96 12.91 29.96 12.05L29.96 12.05ZM36.69 12.05L36.69 12.05Q36.69 10.98 37.33 10.47L37.33 10.47L37.33 10.47Q37.97 9.97 39.34 9.97L39.34 9.97L39.34 9.97Q40.56 9.97 41.66 10.28L41.66 10.28L41.47 11.30L41.47 11.30Q41.12 11.20 40.64 11.14L40.64 11.14L40.64 11.14Q40.17 11.07 39.76 11.07L39.76 11.07L39.76 11.07Q38.92 11.07 38.16 11.20L38.16 11.20L38.16 12.85L38.16 12.85Q39.84 13.09 40.64 13.34L40.64 13.34L40.64 13.34Q41.43 13.58 41.72 13.99L41.72 13.99L41.72 13.99Q42.01 14.41 42.01 15.20L42.01 15.20L42.01 15.20Q42.01 16.00 41.73 16.48L41.73 16.48L41.73 16.48Q41.44 16.95 40.80 17.17L40.80 17.17L40.80 17.17Q40.15 17.39 39.07 17.39L39.07 17.39L39.07 17.39Q37.87 17.39 36.54 16.98L36.54 16.98L36.76 15.86L36.76 15.86Q37.84 16.28 39.06 16.28L39.06 16.28L39.06 16.28Q39.48 16.28 39.80 16.24L39.80 16.24L39.80 16.24Q40.12 16.20 40.54 16.09L40.54 16.09L40.54 14.43L40.54 14.43Q38.74 14.18 37.97 13.94L37.97 13.94L37.97 13.94Q37.20 13.71 36.95 13.31L36.95 13.31L36.95 13.31Q36.69 12.91 36.69 12.05L36.69 12.05ZM50.47 11.14L49.22 11.14L49.22 16.14L49.22 16.14Q49.73 16.20 50.22 16.21L50.22 16.21L50.13 17.16L50.13 17.16Q49.35 17.32 48.86 17.32L48.86 17.32L48.86 17.32Q48.33 17.32 48.08 17.06L48.08 17.06L48.08 17.06Q47.82 16.80 47.82 16.27L47.82 16.27L47.82 11.14L46.84 11.14L46.84 10.18L47.82 10.18L47.82 8.68L49.22 8.33L49.22 10.18L50.47 10.18L50.47 11.14ZM54.91 16.21L54.91 16.21Q55.48 16.21 56.03 16.14L56.03 16.14L56.03 16.14Q56.57 16.06 57.33 15.88L57.33 15.88L57.51 16.90L57.51 16.90Q56.99 17.09 56.23 17.21L56.23 17.21L56.23 17.21Q55.47 17.32 54.66 17.32L54.66 17.32L54.66 17.32Q53.56 17.32 52.99 17.00L52.99 17.00L52.99 17.00Q52.42 16.69 52.18 15.92L52.18 15.92L52.18 15.92Q51.94 15.15 51.94 13.68L51.94 13.68L51.94 13.68Q51.94 12.26 52.21 11.49L52.21 11.49L52.21 11.49Q52.49 10.71 53.12 10.37L53.12 10.37L53.12 10.37Q53.75 10.04 54.89 10.04L54.89 10.04L54.89 10.04Q56.03 10.04 56.62 10.22L56.62 10.22L56.62 10.22Q57.22 10.40 57.46 10.84L57.46 10.84L57.46 10.84Q57.69 11.28 57.69 12.14L57.69 12.14L57.69 12.14Q57.69 13.16 57.40 13.61L57.40 13.61L57.40 13.61Q57.11 14.06 56.25 14.21L56.25 14.21L56.25 14.21Q55.38 14.36 53.41 14.36L53.41 14.36L53.41 16.06L53.41 16.06Q53.97 16.21 54.91 16.21L54.91 16.21ZM54.57 11.19L54.57 11.19Q53.90 11.19 53.66 11.35L53.66 11.35L53.66 11.35Q53.41 11.52 53.41 12.00L53.41 12.00L53.41 13.45L55.26 13.45L55.26 13.45Q55.94 13.45 56.19 13.29L56.19 13.29L56.19 13.29Q56.43 13.12 56.43 12.64L56.43 12.64L56.43 11.19L54.57 11.19ZM67.48 10.04L67.48 10.04Q68.46 10.04 68.96 10.34L68.96 10.34L68.96 10.34Q69.47 10.64 69.47 11.23L69.47 11.23L69.47 17.18L68.07 17.18L68.07 11.19L66.58 11.19L66.58 11.19Q65.97 11.19 65.72 11.31L65.72 11.31L65.72 11.31Q65.46 11.44 65.41 11.77L65.41 11.77L65.41 17.18L64.01 17.18L64.01 11.19L62.52 11.19L62.52 11.19Q61.84 11.19 61.59 11.35L61.59 11.35L61.59 11.35Q61.33 11.52 61.33 12.00L61.33 12.00L61.33 17.18L59.93 17.18L59.93 10.18L60.58 10.18L60.96 10.88L60.96 10.88Q61.46 10.44 62.06 10.24L62.06 10.24L62.06 10.24Q62.65 10.04 63.42 10.04L63.42 10.04L63.42 10.04Q64.86 10.04 65.27 10.68L65.27 10.68L65.27 10.68Q66.18 10.04 67.48 10.04L67.48 10.04ZM75.26 10.04L75.26 10.04Q76.31 10.04 76.85 10.34L76.85 10.34L76.85 10.34Q77.38 10.64 77.58 11.40L77.58 11.40L77.58 11.40Q77.78 12.17 77.78 13.68L77.78 13.68L77.78 13.68Q77.78 15.20 77.57 15.98L77.57 15.98L77.57 15.98Q77.36 16.76 76.83 17.07L76.83 17.07L76.83 17.07Q76.30 17.39 75.26 17.39L75.26 17.39L75.26 17.39Q74.56 17.39 74.10 17.31L74.10 17.31L74.10 17.31Q73.64 17.23 73.32 17.05L73.32 17.05L73.32 19.49L71.92 19.66L71.92 10.18L72.56 10.18L72.88 10.77L72.88 10.77Q73.18 10.35 73.72 10.19L73.72 10.19L73.72 10.19Q74.27 10.04 75.26 10.04L75.26 10.04ZM76.31 15.89L76.31 11.19L73.96 11.19L73.96 11.19Q73.60 11.19 73.46 11.25L73.46 11.25L73.46 11.25Q73.32 11.31 73.32 11.47L73.32 11.47L73.32 16.24L75.67 16.24L75.67 16.24Q76.05 16.24 76.18 16.17L76.18 16.17L76.18 16.17Q76.31 16.10 76.31 15.89L76.31 15.89ZM81.21 16.14L81.21 16.14Q81.49 16.18 81.86 16.21L81.86 16.21L81.77 17.16L81.77 17.16Q81.26 17.32 80.85 17.32L80.85 17.32L80.85 17.32Q80.32 17.32 80.07 17.06L80.07 17.06L80.07 17.06Q79.81 16.80 79.81 16.27L79.81 16.27L79.81 8.08L81.21 7.87L81.21 16.14ZM86.23 16.21L86.23 16.21Q86.80 16.21 87.35 16.14L87.35 16.14L87.35 16.14Q87.89 16.06 88.65 15.88L88.65 15.88L88.83 16.90L88.83 16.90Q88.31 17.09 87.55 17.21L87.55 17.21L87.55 17.21Q86.79 17.32 85.97 17.32L85.97 17.32L85.97 17.32Q84.88 17.32 84.31 17.00L84.31 17.00L84.31 17.00Q83.73 16.69 83.50 15.92L83.50 15.92L83.50 15.92Q83.26 15.15 83.26 13.68L83.26 13.68L83.26 13.68Q83.26 12.26 83.53 11.49L83.53 11.49L83.53 11.49Q83.80 10.71 84.43 10.37L84.43 10.37L84.43 10.37Q85.06 10.04 86.21 10.04L86.21 10.04L86.21 10.04Q87.35 10.04 87.94 10.22L87.94 10.22L87.94 10.22Q88.54 10.40 88.77 10.84L88.77 10.84L88.77 10.84Q89.01 11.28 89.01 12.14L89.01 12.14L89.01 12.14Q89.01 13.16 88.72 13.61L88.72 13.61L88.72 13.61Q88.42 14.06 87.56 14.21L87.56 14.21L87.56 14.21Q86.70 14.36 84.73 14.36L84.73 14.36L84.73 16.06L84.73 16.06Q85.29 16.21 86.23 16.21L86.23 16.21ZM85.89 11.19L85.89 11.19Q85.22 11.19 84.97 11.35L84.97 11.35L84.97 11.35Q84.73 11.52 84.73 12.00L84.73 12.00L84.73 13.45L86.58 13.45L86.58 13.45Q87.26 13.45 87.51 13.29L87.51 13.29L87.51 13.29Q87.75 13.12 87.75 12.64L87.75 12.64L87.75 11.19L85.89 11.19Z"></path></g><!----><g data-v-423bf9ae="" id="089b5225-cbd8-4e34-a636-2ea7b12f5984" transform="matrix(1.8571249550536113,0,0,1.8571249550536113,-8.85624775268056,-47.08725219513386)" stroke="none" fill="white"><path d="M5 43.077h3.462v13.846H5zM11.923 32.692h3.462v34.615h-3.462zM18.846 25.769h6.924v48.462h-6.924zM29.23 46.539h41.539v6.923H29.23zM91.538 43.077H95v13.846h-3.462zM84.615 32.692h3.462v34.615h-3.462zM74.23 25.769h6.924v48.462H74.23z"></path></g><!----></svg>